<svg viewBox="0 0 24 24" xmlns="http://www.w3.org/2000/svg">
  <defs>
    <mask id="circle-mask">
      <circle cx="12" cy="12" r="10.5" fill="white" />
    </mask>
    <filter id="shadow" color-interpolation-filters="sRGB">
      <feDropShadow dx="-0.5" dy="-0.5" stdDeviation="0.5" flood-opacity="0.15"/>
      <feDropShadow dx="-0.5" dy="0.5" stdDeviation="0.5" flood-opacity="0.15"/>
      <feDropShadow dx="0.5" dy="-0.5" stdDeviation="0.5" flood-opacity="0.15"/>
      <feDropShadow dx="0.5" dy="0.5" stdDeviation="0.5" flood-opacity="0.15"/>
    </filter>
  </defs>
  <g filter="url(#shadow)">
    <g mask="url(#circle-mask)">
      <rect width="24" height="24" x="0" y="0" fill="rgb(0, 0, 150)" />

      <rect width="24" height="4" x="0" y="2.5" fill="white" transform="skewY(32)" />
      <rect width="24" height="4" x="0" y="2.5" fill="white" transform="skewY(-32) translate(0,15)" />
      <rect width="12" height="1.5" x="0" y="2.5" fill="rgb(220, 0, 0)" transform="skewY(32) translate(0,1.9)" />
      <rect width="12" height="1.5" x="12" y="2.5" fill="rgb(220, 0, 0)" transform="skewY(32) translate(0,0.7)" />
      <rect width="12" height="1.5" x="0" y="2.5" fill="rgb(220, 0, 0)" transform="skewY(-32) translate(0,16.8)" />
      <rect width="12" height="1.5" x="12" y="2.5" fill="rgb(220, 0, 0)" transform="skewY(-32) translate(0,15.7)" />

      <rect width="24" height="6" x="0" y="9" fill="white"/>
      <rect width="6" height="24" x="9" y="0" fill="white"/>
      <rect width="24" height="4" x="0" y="10" fill="rgb(220, 0, 0)"/>
      <rect width="4" height="24" x="10" y="0" fill="rgb(220, 0, 0)"/>
    </g>
  </g>
</svg>
